<svg width="59" height="35" viewBox="0 0 59 35" fill="none" xmlns="http://www.w3.org/2000/svg">
<path d="M5.976 14.392C5.976 14.856 6.032 15.2 6.144 15.424H1.896C1.8 15.04 1.752 14.544 1.752 13.936C1.752 12 2.4 10.456 3.696 9.304C5.008 8.136 6.88 7.552 9.312 7.552C13.2 7.552 15.144 9.12 15.144 12.256C15.144 13.376 14.872 14.424 14.328 15.4C13.784 16.36 13.12 17.152 12.336 17.776C11.552 18.384 10.768 18.92 9.984 19.384C9.2 19.832 8.52 20.216 7.944 20.536C7.368 20.84 7.056 21.072 7.008 21.232V21.256H13.416L12.744 25H0.192L0.504 23.224C0.68 22.216 1.064 21.32 1.656 20.536C2.248 19.736 2.92 19.112 3.672 18.664C4.424 18.216 5.216 17.776 6.048 17.344C6.896 16.896 7.664 16.504 8.352 16.168C9.04 15.816 9.608 15.368 10.056 14.824C10.52 14.28 10.752 13.672 10.752 13C10.752 11.848 10.104 11.272 8.808 11.272C7.912 11.272 7.216 11.56 6.72 12.136C6.224 12.696 5.976 13.448 5.976 14.392ZM25.9858 25H21.7138L22.2418 21.952H15.4258L16.4098 16.408L23.2018 8.2H27.7618L20.8258 17.104L20.5858 18.496H23.1538L23.7538 15.208H27.7138L27.1138 18.496H29.4898L28.8898 21.952H26.5138L25.9858 25ZM32.793 31.648H27.777L39.681 6.76H44.673L32.793 31.648ZM49.0976 25H44.7776C45.0336 23.592 45.4496 22.232 46.0256 20.92C46.6176 19.608 47.2496 18.488 47.9216 17.56C48.5936 16.632 49.2496 15.792 49.8896 15.04C50.5456 14.272 51.1056 13.584 51.5696 12.976C52.0336 12.352 52.2976 11.848 52.3616 11.464H44.9936L45.6656 7.72H58.2176L57.9056 9.496C57.6016 11.272 56.5456 13.184 54.7376 15.232C54.0016 16.08 53.2576 16.96 52.5056 17.872C51.7536 18.768 51.0576 19.832 50.4176 21.064C49.7776 22.296 49.3376 23.608 49.0976 25Z" fill="black"/>
</svg>
