<svg width="187" height="36" viewBox="0 0 187 36" fill="none" xmlns="http://www.w3.org/2000/svg">
<path d="M52.9199 19.2031V32H50.0547V19.2031H52.9199ZM60.5664 19.2031L55.5566 25.6016L52.6387 28.7656L52.1201 26.1025L54.0449 23.3428L57.0508 19.2031H60.5664ZM57.2441 32L53.7109 26.1553L55.8906 24.459L60.6367 32H57.2441ZM64.583 19.2031V32H61.7266V19.2031H64.583ZM72.0098 26.4717H68.7227L68.7051 24.5557H71.4209C71.9014 24.5557 72.291 24.4971 72.5898 24.3799C72.8945 24.2627 73.1172 24.0928 73.2578 23.8701C73.3984 23.6416 73.4688 23.3604 73.4688 23.0264C73.4688 22.6455 73.3984 22.3379 73.2578 22.1035C73.1172 21.8691 72.8945 21.6992 72.5898 21.5938C72.291 21.4824 71.9043 21.4268 71.4297 21.4268H69.7598V32H66.8945V19.2031H71.4297C72.1973 19.2031 72.8828 19.2734 73.4863 19.4141C74.0898 19.5547 74.6025 19.7715 75.0244 20.0645C75.4521 20.3574 75.7773 20.7236 76 21.1631C76.2227 21.6025 76.334 22.1211 76.334 22.7188C76.334 23.2402 76.2168 23.7266 75.9824 24.1777C75.7539 24.6289 75.3848 24.9951 74.875 25.2764C74.3652 25.5576 73.6826 25.71 72.8271 25.7334L72.0098 26.4717ZM71.8955 32H67.9932L69.0303 29.7852H71.8955C72.335 29.7852 72.6924 29.7148 72.9678 29.5742C73.2432 29.4336 73.4453 29.2432 73.5742 29.0029C73.7031 28.7627 73.7676 28.4932 73.7676 28.1943C73.7676 27.8428 73.7061 27.5381 73.583 27.2803C73.4658 27.0225 73.2783 26.8232 73.0205 26.6826C72.7686 26.542 72.4316 26.4717 72.0098 26.4717H69.4434L69.4609 24.5557H72.5986L73.2666 25.3115C74.0811 25.2939 74.7314 25.4258 75.2178 25.707C75.71 25.9824 76.0645 26.3457 76.2812 26.7969C76.498 27.248 76.6064 27.7256 76.6064 28.2295C76.6064 29.0615 76.4277 29.7588 76.0703 30.3213C75.7129 30.8779 75.1826 31.2969 74.4795 31.5781C73.7822 31.8594 72.9209 32 71.8955 32ZM89.1309 25.3203V25.8916C89.1309 26.8643 88.9961 27.7373 88.7266 28.5107C88.4629 29.2842 88.085 29.9434 87.5928 30.4883C87.1064 31.0332 86.5264 31.4521 85.8525 31.7451C85.1846 32.0322 84.4434 32.1758 83.6289 32.1758C82.8145 32.1758 82.0703 32.0322 81.3965 31.7451C80.7227 31.4521 80.1367 31.0332 79.6387 30.4883C79.1465 29.9434 78.7656 29.2842 78.4961 28.5107C78.2266 27.7373 78.0918 26.8643 78.0918 25.8916V25.3203C78.0918 24.3477 78.2266 23.4746 78.4961 22.7012C78.7656 21.9219 79.1436 21.2598 79.6299 20.7148C80.1221 20.1699 80.7051 19.7539 81.3789 19.4668C82.0527 19.1738 82.7969 19.0273 83.6113 19.0273C84.4258 19.0273 85.1699 19.1738 85.8438 19.4668C86.5176 19.7539 87.0977 20.1699 87.584 20.7148C88.0762 21.2598 88.457 21.9219 88.7266 22.7012C88.9961 23.4746 89.1309 24.3477 89.1309 25.3203ZM86.2393 25.8916V25.3027C86.2393 24.6523 86.1807 24.0781 86.0635 23.5801C85.9463 23.0762 85.7764 22.6543 85.5537 22.3145C85.3311 21.9746 85.0557 21.7197 84.7275 21.5498C84.3994 21.374 84.0273 21.2861 83.6113 21.2861C83.1777 21.2861 82.7998 21.374 82.4775 21.5498C82.1553 21.7197 81.8828 21.9746 81.6602 22.3145C81.4434 22.6543 81.2764 23.0762 81.1592 23.5801C81.0479 24.0781 80.9922 24.6523 80.9922 25.3027V25.8916C80.9922 26.5361 81.0479 27.1104 81.1592 27.6143C81.2764 28.1123 81.4463 28.5342 81.6689 28.8799C81.8916 29.2256 82.1641 29.4863 82.4863 29.6621C82.8145 29.8379 83.1953 29.9258 83.6289 29.9258C84.0449 29.9258 84.4141 29.8379 84.7363 29.6621C85.0645 29.4863 85.3398 29.2256 85.5625 28.8799C85.7852 28.5342 85.9521 28.1123 86.0635 27.6143C86.1807 27.1104 86.2393 26.5361 86.2393 25.8916ZM96.0039 26.4717H92.7168L92.6992 24.5557H95.415C95.8955 24.5557 96.2852 24.4971 96.584 24.3799C96.8887 24.2627 97.1113 24.0928 97.252 23.8701C97.3926 23.6416 97.4629 23.3604 97.4629 23.0264C97.4629 22.6455 97.3926 22.3379 97.252 22.1035C97.1113 21.8691 96.8887 21.6992 96.584 21.5938C96.2852 21.4824 95.8984 21.4268 95.4238 21.4268H93.7539V32H90.8887V19.2031H95.4238C96.1914 19.2031 96.877 19.2734 97.4805 19.4141C98.084 19.5547 98.5967 19.7715 99.0186 20.0645C99.4463 20.3574 99.7715 20.7236 99.9941 21.1631C100.217 21.6025 100.328 22.1211 100.328 22.7188C100.328 23.2402 100.211 23.7266 99.9766 24.1777C99.748 24.6289 99.3789 24.9951 98.8691 25.2764C98.3594 25.5576 97.6768 25.71 96.8213 25.7334L96.0039 26.4717ZM95.8896 32H91.9873L93.0244 29.7852H95.8896C96.3291 29.7852 96.6865 29.7148 96.9619 29.5742C97.2373 29.4336 97.4395 29.2432 97.5684 29.0029C97.6973 28.7627 97.7617 28.4932 97.7617 28.1943C97.7617 27.8428 97.7002 27.5381 97.5771 27.2803C97.46 27.0225 97.2725 26.8232 97.0146 26.6826C96.7627 26.542 96.4258 26.4717 96.0039 26.4717H93.4375L93.4551 24.5557H96.5928L97.2607 25.3115C98.0752 25.2939 98.7256 25.4258 99.2119 25.707C99.7041 25.9824 100.059 26.3457 100.275 26.7969C100.492 27.248 100.601 27.7256 100.601 28.2295C100.601 29.0615 100.422 29.7588 100.064 30.3213C99.707 30.8779 99.1768 31.2969 98.4736 31.5781C97.7764 31.8594 96.915 32 95.8896 32ZM113.125 25.3203V25.8916C113.125 26.8643 112.99 27.7373 112.721 28.5107C112.457 29.2842 112.079 29.9434 111.587 30.4883C111.101 31.0332 110.521 31.4521 109.847 31.7451C109.179 32.0322 108.438 32.1758 107.623 32.1758C106.809 32.1758 106.064 32.0322 105.391 31.7451C104.717 31.4521 104.131 31.0332 103.633 30.4883C103.141 29.9434 102.76 29.2842 102.49 28.5107C102.221 27.7373 102.086 26.8643 102.086 25.8916V25.3203C102.086 24.3477 102.221 23.4746 102.49 22.7012C102.76 21.9219 103.138 21.2598 103.624 20.7148C104.116 20.1699 104.699 19.7539 105.373 19.4668C106.047 19.1738 106.791 19.0273 107.605 19.0273C108.42 19.0273 109.164 19.1738 109.838 19.4668C110.512 19.7539 111.092 20.1699 111.578 20.7148C112.07 21.2598 112.451 21.9219 112.721 22.7012C112.99 23.4746 113.125 24.3477 113.125 25.3203ZM110.233 25.8916V25.3027C110.233 24.6523 110.175 24.0781 110.058 23.5801C109.94 23.0762 109.771 22.6543 109.548 22.3145C109.325 21.9746 109.05 21.7197 108.722 21.5498C108.394 21.374 108.021 21.2861 107.605 21.2861C107.172 21.2861 106.794 21.374 106.472 21.5498C106.149 21.7197 105.877 21.9746 105.654 22.3145C105.438 22.6543 105.271 23.0762 105.153 23.5801C105.042 24.0781 104.986 24.6523 104.986 25.3027V25.8916C104.986 26.5361 105.042 27.1104 105.153 27.6143C105.271 28.1123 105.44 28.5342 105.663 28.8799C105.886 29.2256 106.158 29.4863 106.48 29.6621C106.809 29.8379 107.189 29.9258 107.623 29.9258C108.039 29.9258 108.408 29.8379 108.73 29.6621C109.059 29.4863 109.334 29.2256 109.557 28.8799C109.779 28.5342 109.946 28.1123 110.058 27.6143C110.175 27.1104 110.233 26.5361 110.233 25.8916ZM128.066 29.7852V32H121.255V29.7852H128.066ZM122.23 19.2031V32H119.365V19.2031H122.23ZM127.188 24.3535V26.498H121.255V24.3535H127.188ZM128.075 19.2031V21.4268H121.255V19.2031H128.075ZM140.028 19.2031V32H137.172L132.338 23.7295V32H129.473V19.2031H132.338L137.181 27.4736V19.2031H140.028ZM150.848 29.7852V32H144.036V29.7852H150.848ZM145.012 19.2031V32H142.146V19.2031H145.012ZM149.969 24.3535V26.498H144.036V24.3535H149.969ZM150.856 19.2031V21.4268H144.036V19.2031H150.856ZM152.254 19.2031H157.167C158.146 19.2031 158.992 19.3496 159.707 19.6426C160.428 19.9355 160.981 20.3691 161.368 20.9434C161.755 21.5176 161.948 22.2266 161.948 23.0703C161.948 23.7734 161.834 24.3711 161.605 24.8633C161.377 25.3555 161.055 25.7627 160.639 26.085C160.229 26.4072 159.748 26.668 159.197 26.8672L158.266 27.377H154.082L154.064 25.1533H157.176C157.604 25.1533 157.958 25.0771 158.239 24.9248C158.521 24.7725 158.731 24.5586 158.872 24.2832C159.019 24.002 159.092 23.6738 159.092 23.2988C159.092 22.9121 159.019 22.5781 158.872 22.2969C158.726 22.0156 158.509 21.8018 158.222 21.6553C157.94 21.5029 157.589 21.4268 157.167 21.4268H155.119V32H152.254V19.2031ZM159.338 32L156.464 26.3135L159.487 26.3047L162.405 31.8682V32H159.338ZM174.2 25.2412V30.4004C173.989 30.6406 173.667 30.8984 173.233 31.1738C172.806 31.4492 172.258 31.6865 171.59 31.8857C170.922 32.0791 170.125 32.1758 169.199 32.1758C168.361 32.1758 167.6 32.041 166.914 31.7715C166.229 31.4961 165.64 31.0947 165.147 30.5674C164.655 30.0342 164.274 29.3838 164.005 28.6162C163.741 27.8486 163.609 26.9697 163.609 25.9795V25.2236C163.609 24.2334 163.741 23.3545 164.005 22.5869C164.269 21.8193 164.641 21.1719 165.121 20.6445C165.602 20.1113 166.173 19.707 166.835 19.4316C167.497 19.1562 168.229 19.0186 169.032 19.0186C170.175 19.0186 171.109 19.2031 171.836 19.5723C172.562 19.9355 173.113 20.4395 173.488 21.084C173.869 21.7285 174.104 22.4697 174.191 23.3076H171.432C171.373 22.8799 171.256 22.5107 171.08 22.2002C170.91 21.8896 170.667 21.6523 170.351 21.4883C170.034 21.3184 169.624 21.2334 169.12 21.2334C168.716 21.2334 168.35 21.3184 168.021 21.4883C167.699 21.6523 167.427 21.9014 167.204 22.2354C166.981 22.5693 166.812 22.9854 166.694 23.4834C166.577 23.9756 166.519 24.5498 166.519 25.2061V25.9795C166.519 26.6357 166.577 27.2129 166.694 27.7109C166.817 28.209 166.996 28.625 167.23 28.959C167.465 29.2871 167.761 29.5361 168.118 29.7061C168.481 29.876 168.903 29.9609 169.384 29.9609C169.759 29.9609 170.075 29.9316 170.333 29.873C170.591 29.8086 170.802 29.7295 170.966 29.6357C171.13 29.5361 171.253 29.4453 171.335 29.3633V27.2363H169.059V25.2412H174.2ZM178.208 19.2031L180.713 24.8984L183.235 19.2031H186.329L182.172 27.377V32H179.263V27.377L175.097 19.2031H178.208Z" fill="black"/>
<path d="M25.2758 0H36.1283V2.4445H41L40.9834 35.7848H15.8677C15.8677 35.7848 14.2618 35.3714 14.2618 33.5364C14.2618 31.7014 15.5241 31.2118 15.8677 31.1533C16.2113 31.0949 17.1669 31.1377 17.3201 31.1143C17.4732 31.091 18.6886 30.3807 18.6439 28.815C18.5993 27.2492 17.5878 26.4455 17.2616 26.3736C16.9355 26.3017 9.53422 26.3736 9.53422 26.3736C9.53422 26.3736 7.97784 25.7815 8.00024 23.9227C8.02264 22.0639 9.53422 21.5229 9.53422 21.5229C9.53422 21.5229 14.9343 21.5694 15.3468 21.5229C15.7594 21.4764 16.9635 20.6473 16.9635 19.1128C16.9635 17.5784 15.4926 16.8638 15.1855 16.8222C14.8785 16.7805 12.2436 16.7532 12.2436 16.7532C12.2436 16.7532 10.5262 16.5881 10.513 14.4459C10.4998 12.3036 12.2052 12.0393 12.2052 12.0393C12.2052 12.0393 18.1365 12.0972 18.6223 12.0245C19.1082 11.9519 20.1867 11.2995 20.209 9.60248C20.209 8.02153 18.8999 7.38681 18.623 7.20211C18.8697 7.34031 18.6356 7.20994 18.623 7.20211C18.3763 7.06392 14.1688 7.24818 13.9077 7.14306C13.6466 7.03794 12.4907 6.85664 12.4578 4.87159C12.4249 2.88655 13.5779 2.51906 13.9346 2.46163C14.2912 2.4042 25.2758 2.33525 25.2758 2.33525V0Z" fill="black"/>
<circle cx="7.71613" cy="5.66578" r="2.21418" fill="black"/>
<rect y="12.3083" width="8.05156" height="4.29416" rx="2.14708" fill="black"/>
<rect x="5.36768" y="29.6191" width="6.44125" height="4.29416" rx="2.14708" fill="black"/>
<rect x="22.813" y="5.73288" width="16.3715" height="24.6914" fill="white"/>
<rect x="24.2891" y="7.0748" width="13.5535" height="4.56255" rx="1" fill="#AACE25"/>
<rect x="24.2891" y="12.8451" width="13.5535" height="4.56255" rx="1" fill="#EDEA00"/>
<rect x="24.2891" y="18.6154" width="13.5535" height="4.56255" rx="1" fill="#EBAC07"/>
<rect x="24.2891" y="24.3857" width="13.5535" height="4.56255" rx="1" fill="#DE0100"/>
</svg>
