<svg width="36" height="36" viewBox="0 0 36 36" fill="none" xmlns="http://www.w3.org/2000/svg">
<path d="M4.995 24H16.5V19.5H6L4.995 24ZM19.5 24H31.005L30 19.5H19.5V24ZM31.665 27H19.5V33H33L31.665 27ZM3 33H16.5V27H4.335L3 33ZM16.5 12H19.5V16.5H16.5V12ZM23.64 10.815L25.77 8.685L28.95 11.865L26.835 13.995L23.64 10.815V10.815ZM7.065 11.865L10.245 8.685L12.36 10.815L9.18 13.995L7.065 11.865V11.865ZM4.5 3H9V6H4.5V3ZM27 3H31.5V6H27V3ZM18 10.5C22.14 10.5 25.5 7.14 25.5 3H10.5C10.5 7.14 13.86 10.5 18 10.5Z" fill="black"/>
</svg>
